  0
SECTION
  2
HEADER
  9
$ACADVER
  1
AC1014
  9
$HANDSEED
  5
FFFF
  9
$MEASUREMENT
 70
     1
  0
ENDSEC
  0
SECTION
  2
TABLES
  0
TABLE
  2
VPORT
  5
8
330
0
100
AcDbSymbolTable
 70
     4
  0
VPORT
  5
2E
330
8
100
AcDbSymbolTableRecord
100
AcDbViewportTableRecord
  2
*ACTIVE
 70
     0
 10
0.0
 20
0.0
 11
1.0
 21
1.0
 12
210.0
 22
148.5
 13
0.0
 23
0.0
 14
10.0
 24
10.0
 15
10.0
 25
10.0
 16
0.0
 26
0.0
 36
1.0
 17
0.0
 27
0.0
 37
0.0
 40
341.0
 41
1.24
 42
50.0
 43
0.0
 44
0.0
 50
0.0
 51
0.0
 71
     0
 72
   100
 73
     1
 74
     3
 75
     0
 76
     0
 77
     0
 78
     0
  0
ENDTAB
  0
TABLE
  2
LTYPE
  5
5
330
0
100
AcDbSymbolTable
 70
     1
  0
LTYPE
  5
14
330
5
100
AcDbSymbolTableRecord
100
AcDbLinetypeTableRecord
  2
BYBLOCK
 70
     0
  3

 72
    65
 73
     0
 40
0.0
  0
LTYPE
  5
15
330
5
100
AcDbSymbolTableRecord
100
AcDbLinetypeTableRecord
  2
BYLAYER
 70
     0
  3

 72
    65
 73
     0
 40
0.0
  0
LTYPE
  5
16
330
5
100
AcDbSymbolTableRecord
100
AcDbLinetypeTableRecord
  2
CONTINUOUS
 70
     0
  3
Solid line
 72
    65
 73
     0
 40
0.0
  0
ENDTAB
  0
TABLE
  2
LAYER
  5
2
100
AcDbSymbolTable
 70
3
  0
LAYER
  5
50
100
AcDbSymbolTableRecord
100
AcDbLayerTableRecord
  2
0
 70
0
  6
CONTINUOUS
  0
LAYER
  5
51
100
AcDbSymbolTableRecord
100
AcDbLayerTableRecord
  2
Layer_1
 70
0
  6
CONTINUOUS
  0
LAYER
  5
52
100
AcDbSymbolTableRecord
100
AcDbLayerTableRecord
  2
Layer
 70
0
  6
CONTINUOUS
  0
ENDTAB
  0
TABLE
  2
STYLE
  5
3
330
0
100
AcDbSymbolTable
 70
     1
  0
STYLE
  5
11
330
3
100
AcDbSymbolTableRecord
100
AcDbTextStyleTableRecord
  2
STANDARD
 70
     0
 40
0.0
 41
1.0
 50
0.0
 71
     0
 42
2.5
  3
txt
  4

  0
ENDTAB
  0
TABLE
  2
VIEW
  5
6
330
0
100
AcDbSymbolTable
 70
     0
  0
ENDTAB
  0
TABLE
  2
UCS
  5
7
330
0
100
AcDbSymbolTable
 70
     0
  0
ENDTAB
  0
TABLE
  2
APPID
  5
9
330
0
100
AcDbSymbolTable
 70
     2
  0
APPID
  5
12
330
9
100
AcDbSymbolTableRecord
100
AcDbRegAppTableRecord
  2
ACAD
 70
     0
  0
ENDTAB
  0
TABLE
  2
DIMSTYLE
  5
A
330
0
100
AcDbSymbolTable
 70
     1
  0
DIMSTYLE
105
27
330
A
100
AcDbSymbolTableRecord
100
AcDbDimStyleTableRecord
  2
ISO-25
 70
     0
  3

  4

  5

  6

  7

 40
1.0
 41
2.5
 42
0.625
 43
3.75
 44
1.25
 45
0.0
 46
0.0
 47
0.0
 48
0.0
140
2.5
141
2.5
142
0.0
143
0.03937007874016
144
1.0
145
0.0
146
1.0
147
0.625
 71
     0
 72
     0
 73
     0
 74
     0
 75
     0
 76
     0
 77
     1
 78
     8
170
     0
171
     3
172
     1
173
     0
174
     0
175
     0
176
     0
177
     0
178
     0
270
     2
271
     2
272
     2
273
     2
274
     3
340
11
275
     0
280
     0
281
     0
282
     0
283
     0
284
     8
285
     0
286
     0
287
     3
288
     0
  0
ENDTAB
  0
TABLE
  2
BLOCK_RECORD
  5
1
330
0
100
AcDbSymbolTable
 70
     1
  0
BLOCK_RECORD
  5
1F
330
1
100
AcDbSymbolTableRecord
100
AcDbBlockTableRecord
  2
*MODEL_SPACE
  0
BLOCK_RECORD
  5
1B
330
1
100
AcDbSymbolTableRecord
100
AcDbBlockTableRecord
  2
*PAPER_SPACE
  0
ENDTAB
  0
ENDSEC
  0
SECTION
  2
BLOCKS
  0
BLOCK
  5
20
330
1F
100
AcDbEntity
  8
0
100
AcDbBlockBegin
  2
*MODEL_SPACE
 70
     0
 10
0.0
 20
0.0
 30
0.0
  3
*MODEL_SPACE
  1

  0
ENDBLK
  5
21
330
1F
100
AcDbEntity
  8
0
100
AcDbBlockEnd
  0
BLOCK
  5
1C
330
1B
100
AcDbEntity
 67
     1
  8
0
100
AcDbBlockBegin
  2
*PAPER_SPACE
  1

  0
ENDBLK
  5
1D
330
1B
100
AcDbEntity
 67
     1
  8
0
100
AcDbBlockEnd
  0
ENDSEC
  0
SECTION
  2
ENTITIES
  0
SPLINE
  5
100
100
AcDbEntity
  8
Layer_1
 62
7
100
AcDbSpline
 70
8
 71
3
 72
8
 73
4
 74
0
 40
0
 40
0
 40
0
 40
0
 40
1
 40
1
 40
1
 40
1
 10
39.836680
 20
19.999999
 30
0.0
 10
39.836680
 20
9.044503
 30
0.0
 10
30.955496
 20
0.163318
 30
0.0
 10
20.000000
 20
0.163318
 30
0.0
  0
SPLINE
  5
101
100
AcDbEntity
  8
Layer_1
 62
7
100
AcDbSpline
 70
8
 71
3
 72
8
 73
4
 74
0
 40
0
 40
0
 40
0
 40
0
 40
1
 40
1
 40
1
 40
1
 10
20.000000
 20
0.163318
 30
0.0
 10
9.044504
 20
0.163318
 30
0.0
 10
0.163320
 20
9.044503
 30
0.0
 10
0.163320
 20
19.999999
 30
0.0
  0
SPLINE
  5
102
100
AcDbEntity
  8
Layer_1
 62
7
100
AcDbSpline
 70
8
 71
3
 72
8
 73
4
 74
0
 40
0
 40
0
 40
0
 40
0
 40
1
 40
1
 40
1
 40
1
 10
0.163320
 20
19.999999
 30
0.0
 10
0.163320
 20
30.955496
 30
0.0
 10
9.044504
 20
39.836680
 30
0.0
 10
20.000000
 20
39.836680
 30
0.0
  0
SPLINE
  5
103
100
AcDbEntity
  8
Layer_1
 62
7
100
AcDbSpline
 70
8
 71
3
 72
8
 73
4
 74
0
 40
0
 40
0
 40
0
 40
0
 40
1
 40
1
 40
1
 40
1
 10
20.000000
 20
39.836680
 30
0.0
 10
30.955496
 20
39.836680
 30
0.0
 10
39.836680
 20
30.955496
 30
0.0
 10
39.836680
 20
19.999999
 30
0.0
  0
LWPOLYLINE
  5
104
100
AcDbEntity
  8
Layer_1
 62
7
100
AcDbPolyline
 90
2
 70
0
 10
39.836680
 20
19.999999
 30
0.0
 10
39.836680
 20
19.999999
 30
0.0
  0
LWPOLYLINE
  5
105
100
AcDbEntity
  8
Layer
 62
7
100
AcDbPolyline
 90
15
 70
0
 10
10.107083
 20
31.974305
 30
0.0
 10
11.403542
 20
27.873263
 30
0.0
 10
12.453056
 20
27.873263
 30
0.0
 10
13.149792
 20
30.510277
 30
0.0
 10
13.855347
 20
27.873263
 30
0.0
 10
14.896042
 20
27.873263
 30
0.0
 10
16.210139
 20
31.974305
 30
0.0
 10
15.142986
 20
31.974305
 30
0.0
 10
14.358056
 20
29.284374
 30
0.0
 10
13.678958
 20
31.974305
 30
0.0
 10
12.629444
 20
31.974305
 30
0.0
 10
11.923889
 20
29.284374
 30
0.0
 10
11.156597
 20
31.974305
 30
0.0
 10
10.107083
 20
31.974305
 30
0.0
 10
10.107083
 20
31.974305
 30
0.0
  0
LWPOLYLINE
  5
106
100
AcDbEntity
  8
Layer
 62
7
100
AcDbPolyline
 90
15
 70
0
 10
16.245417
 20
31.974305
 30
0.0
 10
17.541875
 20
27.873263
 30
0.0
 10
18.600208
 20
27.873263
 30
0.0
 10
19.288125
 20
30.510277
 30
0.0
 10
19.993681
 20
27.873263
 30
0.0
 10
21.043194
 20
27.873263
 30
0.0
 10
22.357292
 20
31.974305
 30
0.0
 10
21.290139
 20
31.974305
 30
0.0
 10
20.505208
 20
29.284374
 30
0.0
 10
19.817292
 20
31.974305
 30
0.0
 10
18.776597
 20
31.974305
 30
0.0
 10
18.071042
 20
29.284374
 30
0.0
 10
17.303750
 20
31.974305
 30
0.0
 10
16.245417
 20
31.974305
 30
0.0
 10
16.245417
 20
31.974305
 30
0.0
  0
LWPOLYLINE
  5
107
100
AcDbEntity
  8
Layer
 62
7
100
AcDbPolyline
 90
15
 70
0
 10
22.392569
 20
31.974305
 30
0.0
 10
23.689028
 20
27.873263
 30
0.0
 10
24.738542
 20
27.873263
 30
0.0
 10
25.435278
 20
30.510277
 30
0.0
 10
26.140833
 20
27.873263
 30
0.0
 10
27.181528
 20
27.873263
 30
0.0
 10
28.495625
 20
31.974305
 30
0.0
 10
27.428472
 20
31.974305
 30
0.0
 10
26.643542
 20
29.284374
 30
0.0
 10
25.964444
 20
31.974305
 30
0.0
 10
24.914931
 20
31.974305
 30
0.0
 10
24.209375
 20
29.284374
 30
0.0
 10
23.442083
 20
31.974305
 30
0.0
 10
22.392569
 20
31.974305
 30
0.0
 10
22.392569
 20
31.974305
 30
0.0
  0
LWPOLYLINE
  5
108
100
AcDbEntity
  8
Layer
 62
7
100
AcDbPolyline
 90
6
 70
0
 10
28.769028
 20
28.958055
 30
0.0
 10
28.769028
 20
27.873263
 30
0.0
 10
29.853819
 20
27.873263
 30
0.0
 10
29.853819
 20
28.958055
 30
0.0
 10
28.769028
 20
28.958055
 30
0.0
 10
28.769028
 20
28.958055
 30
0.0
  0
LWPOLYLINE
  5
109
100
AcDbEntity
  8
Layer
 62
7
100
AcDbPolyline
 90
6
 70
0
 10
4.303889
 20
23.657568
 30
0.0
 10
4.303889
 20
22.652152
 30
0.0
 10
5.388681
 20
22.652152
 30
0.0
 10
5.388681
 20
23.657568
 30
0.0
 10
4.303889
 20
23.657568
 30
0.0
 10
4.303889
 20
23.657568
 30
0.0
  0
LWPOLYLINE
  5
10a
100
AcDbEntity
  8
Layer
 62
7
100
AcDbPolyline
 90
6
 70
0
 10
23.627292
 20
23.657568
 30
0.0
 10
23.627292
 20
22.652152
 30
0.0
 10
24.712083
 20
22.652152
 30
0.0
 10
24.712083
 20
23.657568
 30
0.0
 10
23.627292
 20
23.657568
 30
0.0
 10
23.627292
 20
23.657568
 30
0.0
  0
LWPOLYLINE
  5
10b
100
AcDbEntity
  8
Layer
 62
7
100
AcDbPolyline
 90
34
 70
0
 10
6.985000
 20
23.578193
 30
0.0
 10
6.429375
 20
20.632499
 30
0.0
 10
7.311319
 20
20.509027
 30
0.0
 10
7.708194
 20
20.817707
 30
0.0
 10
8.149167
 20
20.914721
 30
0.0
 10
8.484306
 20
20.852985
 30
0.0
 10
8.757708
 20
20.658957
 30
0.0
 10
8.934097
 20
20.332638
 30
0.0
 10
8.987014
 20
19.874027
 30
0.0
 10
8.934097
 20
19.388957
 30
0.0
 10
8.757708
 20
19.044999
 30
0.0
 10
8.493125
 20
18.833332
 30
0.0
 10
8.175625
 20
18.771596
 30
0.0
 10
7.655278
 20
18.983263
 30
0.0
 10
7.381875
 20
19.565346
 30
0.0
 10
6.297083
 20
19.450693
 30
0.0
 10
6.499931
 20
18.815693
 30
0.0
 10
6.887986
 20
18.321805
 30
0.0
 10
7.461250
 20
18.004305
 30
0.0
 10
8.166806
 20
17.898471
 30
0.0
 10
9.039931
 20
18.092499
 30
0.0
 10
9.701389
 20
18.648124
 30
0.0
 10
10.001250
 20
19.239027
 30
0.0
 10
10.107083
 20
19.891666
 30
0.0
 10
9.983611
 20
20.658957
 30
0.0
 10
9.604375
 20
21.258680
 30
0.0
 10
9.048750
 20
21.655555
 30
0.0
 10
8.378472
 20
21.779027
 30
0.0
 10
7.637639
 20
21.602638
 30
0.0
 10
7.805208
 20
22.563957
 30
0.0
 10
9.851319
 20
22.563957
 30
0.0
 10
9.851319
 20
23.578193
 30
0.0
 10
6.985000
 20
23.578193
 30
0.0
 10
6.985000
 20
23.578193
 30
0.0
  0
LWPOLYLINE
  5
10c
100
AcDbEntity
  8
Layer
 62
7
100
AcDbPolyline
 90
23
 70
0
 10
35.771667
 20
23.542916
 30
0.0
 10
34.686875
 20
22.907916
 30
0.0
 10
34.686875
 20
22.096527
 30
0.0
 10
34.192986
 20
22.096527
 30
0.0
 10
34.192986
 20
21.232221
 30
0.0
 10
34.686875
 20
21.232221
 30
0.0
 10
34.686875
 20
19.441874
 30
0.0
 10
34.722153
 20
18.683402
 30
0.0
 10
34.872083
 20
18.260068
 30
0.0
 10
35.216042
 20
18.004305
 30
0.0
 10
35.745208
 20
17.907291
 30
0.0
 10
36.600694
 20
18.066041
 30
0.0
 10
36.512500
 20
18.903888
 30
0.0
 10
36.080347
 20
18.806874
 30
0.0
 10
35.895139
 20
18.859791
 30
0.0
 10
35.798125
 20
18.992082
 30
0.0
 10
35.771667
 20
19.582985
 30
0.0
 10
35.771667
 20
21.232221
 30
0.0
 10
36.512500
 20
21.232221
 30
0.0
 10
36.512500
 20
22.096527
 30
0.0
 10
35.771667
 20
22.096527
 30
0.0
 10
35.771667
 20
23.542916
 30
0.0
 10
35.771667
 20
23.542916
 30
0.0
  0
LWPOLYLINE
  5
10d
100
AcDbEntity
  8
Layer
 62
7
100
AcDbPolyline
 90
19
 70
0
 10
13.176250
 20
22.184721
 30
0.0
 10
12.426597
 20
21.990693
 30
0.0
 10
11.897431
 20
21.496805
 30
0.0
 10
11.897431
 20
22.096527
 30
0.0
 10
10.883194
 20
22.096527
 30
0.0
 10
10.883194
 20
16.434443
 30
0.0
 10
11.967986
 20
16.434443
 30
0.0
 10
11.967986
 20
18.507013
 30
0.0
 10
12.550069
 20
18.039582
 30
0.0
 10
13.167431
 20
17.907291
 30
0.0
 10
13.828889
 20
18.048402
 30
0.0
 10
14.375694
 20
18.471735
 30
0.0
 10
14.754931
 20
19.159652
 30
0.0
 10
14.878403
 20
20.068055
 30
0.0
 10
14.754931
 20
20.958818
 30
0.0
 10
14.384514
 20
21.629096
 30
0.0
 10
13.828889
 20
22.043610
 30
0.0
 10
13.176250
 20
22.184721
 30
0.0
 10
13.176250
 20
22.184721
 30
0.0
  0
LWPOLYLINE
  5
10e
100
AcDbEntity
  8
Layer
 62
7
100
AcDbPolyline
 90
15
 70
0
 10
17.638889
 20
22.184721
 30
0.0
 10
17.171458
 20
22.052430
 30
0.0
 10
16.704028
 20
21.514443
 30
0.0
 10
16.704028
 20
22.096527
 30
0.0
 10
15.698611
 20
22.096527
 30
0.0
 10
15.698611
 20
17.995485
 30
0.0
 10
16.783403
 20
17.995485
 30
0.0
 10
16.783403
 20
19.265485
 30
0.0
 10
16.871597
 20
20.632499
 30
0.0
 10
17.127361
 20
21.091110
 30
0.0
 10
17.506597
 20
21.214582
 30
0.0
 10
18.018125
 20
21.038193
 30
0.0
 10
18.353264
 20
21.981874
 30
0.0
 10
17.638889
 20
22.184721
 30
0.0
 10
17.638889
 20
22.184721
 30
0.0
  0
LWPOLYLINE
  5
10f
100
AcDbEntity
  8
Layer
 62
7
100
AcDbPolyline
 90
22
 70
0
 10
20.672778
 20
22.184721
 30
0.0
 10
20.099514
 20
22.122985
 30
0.0
 10
19.587986
 20
21.920138
 30
0.0
 10
19.155833
 20
21.593818
 30
0.0
 10
18.829514
 20
21.152846
 30
0.0
 10
18.635486
 20
20.632499
 30
0.0
 10
18.564931
 20
20.103332
 30
0.0
 10
18.635486
 20
19.450693
 30
0.0
 10
18.829514
 20
18.903888
 30
0.0
 10
19.155833
 20
18.471735
 30
0.0
 10
19.605625
 20
18.163055
 30
0.0
 10
20.134792
 20
17.969027
 30
0.0
 10
20.681597
 20
17.907291
 30
0.0
 10
21.519444
 20
18.057221
 30
0.0
 10
22.189722
 20
18.515832
 30
0.0
 10
22.648333
 20
19.203749
 30
0.0
 10
22.798264
 20
20.059235
 30
0.0
 10
22.648333
 20
20.897082
 30
0.0
 10
22.198542
 20
21.584999
 30
0.0
 10
21.519444
 20
22.034791
 30
0.0
 10
20.672778
 20
22.184721
 30
0.0
 10
20.672778
 20
22.184721
 30
0.0
  0
LWPOLYLINE
  5
110
100
AcDbEntity
  8
Layer
 62
7
100
AcDbPolyline
 90
26
 70
0
 10
27.402014
 20
22.184721
 30
0.0
 10
26.661181
 20
22.043610
 30
0.0
 10
26.052639
 20
21.611457
 30
0.0
 10
25.655764
 20
20.923541
 30
0.0
 10
25.523472
 20
20.015138
 30
0.0
 10
25.620486
 20
19.239027
 30
0.0
 10
25.929167
 20
18.604027
 30
0.0
 10
26.581806
 20
18.083680
 30
0.0
 10
27.507847
 20
17.907291
 30
0.0
 10
28.125208
 20
17.977846
 30
0.0
 10
28.636736
 20
18.215971
 30
0.0
 10
29.024792
 20
18.595207
 30
0.0
 10
29.289375
 20
19.124374
 30
0.0
 10
28.213403
 20
19.300763
 30
0.0
 10
27.948819
 20
18.850971
 30
0.0
 10
27.525486
 20
18.718680
 30
0.0
 10
27.181528
 20
18.780416
 30
0.0
 10
26.899306
 20
18.983263
 30
0.0
 10
26.705278
 20
19.300763
 30
0.0
 10
26.634722
 20
19.732916
 30
0.0
 10
29.351111
 20
19.732916
 30
0.0
 10
29.236458
 20
20.817707
 30
0.0
 10
28.848403
 20
21.584999
 30
0.0
 10
28.222222
 20
22.034791
 30
0.0
 10
27.402014
 20
22.184721
 30
0.0
 10
27.402014
 20
22.184721
 30
0.0
  0
LWPOLYLINE
  5
111
100
AcDbEntity
  8
Layer
 62
7
100
AcDbPolyline
 90
32
 70
0
 10
31.988125
 20
22.184721
 30
0.0
 10
31.167917
 20
22.043610
 30
0.0
 10
30.532917
 20
21.620277
 30
0.0
 10
30.136042
 20
20.941180
 30
0.0
 10
29.994931
 20
20.041596
 30
0.0
 10
30.136042
 20
19.150832
 30
0.0
 10
30.532917
 20
18.471735
 30
0.0
 10
31.159097
 20
18.048402
 30
0.0
 10
31.970486
 20
17.907291
 30
0.0
 10
32.676042
 20
17.995485
 30
0.0
 10
33.231667
 20
18.277707
 30
0.0
 10
33.619722
 20
18.745138
 30
0.0
 10
33.866667
 20
19.388957
 30
0.0
 10
32.799514
 20
19.565346
 30
0.0
 10
32.526111
 20
18.965624
 30
0.0
 10
32.014583
 20
18.789235
 30
0.0
 10
31.644167
 20
18.859791
 30
0.0
 10
31.353125
 20
19.089096
 30
0.0
 10
31.176736
 20
19.494791
 30
0.0
 10
31.115000
 20
20.120971
 30
0.0
 10
31.176736
 20
20.685416
 30
0.0
 10
31.353125
 20
21.055832
 30
0.0
 10
31.635347
 20
21.267499
 30
0.0
 10
32.005764
 20
21.338055
 30
0.0
 10
32.499653
 20
21.170485
 30
0.0
 10
32.746597
 20
20.694235
 30
0.0
 10
33.813750
 20
20.879443
 30
0.0
 10
33.557986
 20
21.461527
 30
0.0
 10
33.178750
 20
21.867221
 30
0.0
 10
32.658403
 20
22.105346
 30
0.0
 10
31.988125
 20
22.184721
 30
0.0
 10
31.988125
 20
22.184721
 30
0.0
  0
LWPOLYLINE
  5
112
100
AcDbEntity
  8
Layer
 62
7
100
AcDbPolyline
 90
16
 70
0
 10
4.303889
 20
22.096527
 30
0.0
 10
4.303889
 20
18.189513
 30
0.0
 10
4.268611
 20
17.580971
 30
0.0
 10
4.127500
 20
17.413402
 30
0.0
 10
3.854097
 20
17.342846
 30
0.0
 10
3.730625
 20
17.351666
 30
0.0
 10
3.580694
 20
17.378124
 30
0.0
 10
3.395486
 20
16.452082
 30
0.0
 10
3.792361
 20
16.363888
 30
0.0
 10
4.145139
 20
16.337430
 30
0.0
 10
4.885972
 20
16.513818
 30
0.0
 10
5.282847
 20
17.025346
 30
0.0
 10
5.388681
 20
18.127777
 30
0.0
 10
5.388681
 20
22.096527
 30
0.0
 10
4.303889
 20
22.096527
 30
0.0
 10
4.303889
 20
22.096527
 30
0.0
  0
LWPOLYLINE
  5
113
100
AcDbEntity
  8
Layer
 62
7
100
AcDbPolyline
 90
16
 70
0
 10
23.627292
 20
22.096527
 30
0.0
 10
23.627292
 20
18.189513
 30
0.0
 10
23.592014
 20
17.580971
 30
0.0
 10
23.450903
 20
17.413402
 30
0.0
 10
23.177500
 20
17.342846
 30
0.0
 10
23.054028
 20
17.351666
 30
0.0
 10
22.904097
 20
17.378124
 30
0.0
 10
22.718889
 20
16.452082
 30
0.0
 10
23.115764
 20
16.363888
 30
0.0
 10
23.468542
 20
16.337430
 30
0.0
 10
24.209375
 20
16.513818
 30
0.0
 10
24.606250
 20
17.025346
 30
0.0
 10
24.712083
 20
18.127777
 30
0.0
 10
24.712083
 20
22.096527
 30
0.0
 10
23.627292
 20
22.096527
 30
0.0
 10
23.627292
 20
22.096527
 30
0.0
  0
LWPOLYLINE
  5
114
100
AcDbEntity
  8
Layer
 62
7
100
AcDbPolyline
 90
11
 70
0
 10
27.463750
 20
21.355693
 30
0.0
 10
27.772431
 20
21.293957
 30
0.0
 10
28.028194
 20
21.108749
 30
0.0
 10
28.204583
 20
20.808888
 30
0.0
 10
28.275139
 20
20.394374
 30
0.0
 10
26.652361
 20
20.394374
 30
0.0
 10
26.705278
 20
20.791249
 30
0.0
 10
26.881667
 20
21.099930
 30
0.0
 10
27.146250
 20
21.293957
 30
0.0
 10
27.463750
 20
21.355693
 30
0.0
 10
27.463750
 20
21.355693
 30
0.0
  0
LWPOLYLINE
  5
115
100
AcDbEntity
  8
Layer
 62
7
100
AcDbPolyline
 90
18
 70
0
 10
12.876389
 20
21.329235
 30
0.0
 10
13.229167
 20
21.249860
 30
0.0
 10
13.520208
 20
21.020555
 30
0.0
 10
13.714236
 20
20.623680
 30
0.0
 10
13.775972
 20
20.059235
 30
0.0
 10
13.714236
 20
19.468332
 30
0.0
 10
13.529028
 20
19.062638
 30
0.0
 10
13.246806
 20
18.842152
 30
0.0
 10
12.894028
 20
18.762777
 30
0.0
 10
12.532431
 20
18.850971
 30
0.0
 10
12.232569
 20
19.089096
 30
0.0
 10
12.029722
 20
19.512430
 30
0.0
 10
11.959167
 20
20.112152
 30
0.0
 10
12.020903
 20
20.641318
 30
0.0
 10
12.214931
 20
21.020555
 30
0.0
 10
12.514792
 20
21.249860
 30
0.0
 10
12.876389
 20
21.329235
 30
0.0
 10
12.876389
 20
21.329235
 30
0.0
  0
LWPOLYLINE
  5
116
100
AcDbEntity
  8
Layer
 62
7
100
AcDbPolyline
 90
18
 70
0
 10
20.681597
 20
21.302777
 30
0.0
 10
21.069653
 20
21.223402
 30
0.0
 10
21.387153
 20
20.976457
 30
0.0
 10
21.607639
 20
20.588402
 30
0.0
 10
21.678194
 20
20.050416
 30
0.0
 10
21.607639
 20
19.512430
 30
0.0
 10
21.387153
 20
19.115555
 30
0.0
 10
21.069653
 20
18.868610
 30
0.0
 10
20.681597
 20
18.789235
 30
0.0
 10
20.293542
 20
18.868610
 30
0.0
 10
19.967222
 20
19.115555
 30
0.0
 10
19.746736
 20
19.512430
 30
0.0
 10
19.676181
 20
20.050416
 30
0.0
 10
19.746736
 20
20.588402
 30
0.0
 10
19.967222
 20
20.976457
 30
0.0
 10
20.293542
 20
21.223402
 30
0.0
 10
20.681597
 20
21.302777
 30
0.0
 10
20.681597
 20
21.302777
 30
0.0
  0
LWPOLYLINE
  5
117
100
AcDbEntity
  8
Layer
 62
7
100
AcDbPolyline
 90
32
 70
0
 10
15.522222
 20
12.306943
 30
0.0
 10
14.702014
 20
12.165832
 30
0.0
 10
14.067014
 20
11.742499
 30
0.0
 10
13.661319
 20
11.063402
 30
0.0
 10
13.529028
 20
10.163818
 30
0.0
 10
13.661319
 20
9.273055
 30
0.0
 10
14.067014
 20
8.593957
 30
0.0
 10
14.693194
 20
8.170624
 30
0.0
 10
15.495764
 20
8.029513
 30
0.0
 10
16.210139
 20
8.117707
 30
0.0
 10
16.756944
 20
8.399930
 30
0.0
 10
17.153819
 20
8.867360
 30
0.0
 10
17.400764
 20
9.511180
 30
0.0
 10
16.333611
 20
9.687568
 30
0.0
 10
16.051389
 20
9.087846
 30
0.0
 10
15.548681
 20
8.911457
 30
0.0
 10
15.178264
 20
8.982013
 30
0.0
 10
14.887222
 20
9.211318
 30
0.0
 10
14.710833
 20
9.617013
 30
0.0
 10
14.649097
 20
10.243193
 30
0.0
 10
14.702014
 20
10.807638
 30
0.0
 10
14.887222
 20
11.178055
 30
0.0
 10
15.169444
 20
11.389721
 30
0.0
 10
15.531042
 20
11.460277
 30
0.0
 10
16.024931
 20
11.292707
 30
0.0
 10
16.271875
 20
10.816457
 30
0.0
 10
17.339028
 20
11.001666
 30
0.0
 10
17.092083
 20
11.583749
 30
0.0
 10
16.704028
 20
11.989443
 30
0.0
 10
16.192500
 20
12.227568
 30
0.0
 10
15.522222
 20
12.306943
 30
0.0
 10
15.522222
 20
12.306943
 30
0.0
  0
LWPOLYLINE
  5
118
100
AcDbEntity
  8
Layer
 62
7
100
AcDbPolyline
 90
22
 70
0
 10
20.028958
 20
12.306943
 30
0.0
 10
19.455694
 20
12.245207
 30
0.0
 10
18.935347
 20
12.042360
 30
0.0
 10
18.503194
 20
11.716041
 30
0.0
 10
18.185694
 20
11.275068
 30
0.0
 10
17.982847
 20
10.754721
 30
0.0
 10
17.921111
 20
10.225555
 30
0.0
 10
17.982847
 20
9.572916
 30
0.0
 10
18.185694
 20
9.026110
 30
0.0
 10
18.512014
 20
8.593957
 30
0.0
 10
18.961806
 20
8.285277
 30
0.0
 10
19.482153
 20
8.091249
 30
0.0
 10
20.037778
 20
8.029513
 30
0.0
 10
20.866806
 20
8.179443
 30
0.0
 10
21.545903
 20
8.638055
 30
0.0
 10
21.995694
 20
9.325971
 30
0.0
 10
22.145625
 20
10.181457
 30
0.0
 10
21.995694
 20
11.019305
 30
0.0
 10
21.554722
 20
11.707221
 30
0.0
 10
20.875625
 20
12.157013
 30
0.0
 10
20.028958
 20
12.306943
 30
0.0
 10
20.028958
 20
12.306943
 30
0.0
  0
LWPOLYLINE
  5
119
100
AcDbEntity
  8
Layer
 62
7
100
AcDbPolyline
 90
34
 70
0
 10
25.197153
 20
12.306943
 30
0.0
 10
24.509236
 20
12.148193
 30
0.0
 10
23.918333
 20
11.654305
 30
0.0
 10
23.918333
 20
12.218749
 30
0.0
 10
22.921736
 20
12.218749
 30
0.0
 10
22.921736
 20
8.117707
 30
0.0
 10
24.006528
 20
8.117707
 30
0.0
 10
24.006528
 20
10.110902
 30
0.0
 10
24.085903
 20
10.957568
 30
0.0
 10
24.376944
 20
11.345624
 30
0.0
 10
24.826736
 20
11.477916
 30
0.0
 10
25.153056
 20
11.398541
 30
0.0
 10
25.338264
 20
11.133957
 30
0.0
 10
25.400000
 20
10.366666
 30
0.0
 10
25.400000
 20
8.117707
 30
0.0
 10
26.475972
 20
8.117707
 30
0.0
 10
26.475972
 20
10.084443
 30
0.0
 10
26.572986
 20
10.931110
 30
0.0
 10
26.855208
 20
11.345624
 30
0.0
 10
27.287361
 20
11.477916
 30
0.0
 10
27.560764
 20
11.424999
 30
0.0
 10
27.745972
 20
11.248610
 30
0.0
 10
27.860625
 20
10.463680
 30
0.0
 10
27.860625
 20
8.117707
 30
0.0
 10
28.945417
 20
8.117707
 30
0.0
 10
28.945417
 20
10.737082
 30
0.0
 10
28.830764
 20
11.592568
 30
0.0
 10
28.363333
 20
12.121735
 30
0.0
 10
27.604861
 20
12.306943
 30
0.0
 10
26.934583
 20
12.148193
 30
0.0
 10
26.352500
 20
11.654305
 30
0.0
 10
25.876250
 20
12.148193
 30
0.0
 10
25.197153
 20
12.306943
 30
0.0
 10
25.197153
 20
12.306943
 30
0.0
  0
LWPOLYLINE
  5
11a
100
AcDbEntity
  8
Layer
 62
7
100
AcDbPolyline
 90
18
 70
0
 10
20.028958
 20
11.424999
 30
0.0
 10
20.425833
 20
11.345624
 30
0.0
 10
20.743333
 20
11.098680
 30
0.0
 10
20.963819
 20
10.710624
 30
0.0
 10
21.034375
 20
10.172638
 30
0.0
 10
20.963819
 20
9.634652
 30
0.0
 10
20.743333
 20
9.237777
 30
0.0
 10
20.425833
 20
8.990832
 30
0.0
 10
20.028958
 20
8.911457
 30
0.0
 10
19.640903
 20
8.990832
 30
0.0
 10
19.314583
 20
9.237777
 30
0.0
 10
19.102917
 20
9.634652
 30
0.0
 10
19.032361
 20
10.172638
 30
0.0
 10
19.102917
 20
10.710624
 30
0.0
 10
19.314583
 20
11.098680
 30
0.0
 10
19.640903
 20
11.345624
 30
0.0
 10
20.028958
 20
11.424999
 30
0.0
 10
20.028958
 20
11.424999
 30
0.0
  0
LWPOLYLINE
  5
11b
100
AcDbEntity
  8
Layer
 62
7
100
AcDbPolyline
 90
6
 70
0
 10
11.579931
 20
9.202499
 30
0.0
 10
11.579931
 20
8.117707
 30
0.0
 10
12.664722
 20
8.117707
 30
0.0
 10
12.664722
 20
9.202499
 30
0.0
 10
11.579931
 20
9.202499
 30
0.0
 10
11.579931
 20
9.202499
 30
0.0
  0
ENDSEC
  0
SECTION
  2
OBJECTS
  0
DICTIONARY
  5
C
330
0
100
AcDbDictionary
  3
ACAD_GROUP
350
D
  3
ACAD_MLINESTYLE
350
17
  0
DICTIONARY
  5
D
330
C
100
AcDbDictionary
  0
DICTIONARY
  5
1A
330
C
100
AcDbDictionary
  0
DICTIONARY
  5
17
330
C
100
AcDbDictionary
  3
STANDARD
350
18
  0
DICTIONARY
  5
19
330
C
100
AcDbDictionary
  0
ENDSEC
  0
EOF
