  0
SECTION
  2
HEADER
  9
$ACADVER
  1
AC1014
  9
$HANDSEED
  5
FFFF
  9
$MEASUREMENT
 70
     1
  0
ENDSEC
  0
SECTION
  2
TABLES
  0
TABLE
  2
VPORT
  5
8
330
0
100
AcDbSymbolTable
 70
     4
  0
VPORT
  5
2E
330
8
100
AcDbSymbolTableRecord
100
AcDbViewportTableRecord
  2
*ACTIVE
 70
     0
 10
0.0
 20
0.0
 11
1.0
 21
1.0
 12
210.0
 22
148.5
 13
0.0
 23
0.0
 14
10.0
 24
10.0
 15
10.0
 25
10.0
 16
0.0
 26
0.0
 36
1.0
 17
0.0
 27
0.0
 37
0.0
 40
341.0
 41
1.24
 42
50.0
 43
0.0
 44
0.0
 50
0.0
 51
0.0
 71
     0
 72
   100
 73
     1
 74
     3
 75
     0
 76
     0
 77
     0
 78
     0
  0
ENDTAB
  0
TABLE
  2
LTYPE
  5
5
330
0
100
AcDbSymbolTable
 70
     1
  0
LTYPE
  5
14
330
5
100
AcDbSymbolTableRecord
100
AcDbLinetypeTableRecord
  2
BYBLOCK
 70
     0
  3

 72
    65
 73
     0
 40
0.0
  0
LTYPE
  5
15
330
5
100
AcDbSymbolTableRecord
100
AcDbLinetypeTableRecord
  2
BYLAYER
 70
     0
  3

 72
    65
 73
     0
 40
0.0
  0
LTYPE
  5
16
330
5
100
AcDbSymbolTableRecord
100
AcDbLinetypeTableRecord
  2
CONTINUOUS
 70
     0
  3
Solid line
 72
    65
 73
     0
 40
0.0
  0
ENDTAB
  0
TABLE
  2
LAYER
  5
2
100
AcDbSymbolTable
 70
3
  0
LAYER
  5
50
100
AcDbSymbolTableRecord
100
AcDbLayerTableRecord
  2
0
 70
0
  6
CONTINUOUS
  0
LAYER
  5
51
100
AcDbSymbolTableRecord
100
AcDbLayerTableRecord
  2
Layer_1
 70
0
  6
CONTINUOUS
  0
LAYER
  5
52
100
AcDbSymbolTableRecord
100
AcDbLayerTableRecord
  2
Layer
 70
0
  6
CONTINUOUS
  0
ENDTAB
  0
TABLE
  2
STYLE
  5
3
330
0
100
AcDbSymbolTable
 70
     1
  0
STYLE
  5
11
330
3
100
AcDbSymbolTableRecord
100
AcDbTextStyleTableRecord
  2
STANDARD
 70
     0
 40
0.0
 41
1.0
 50
0.0
 71
     0
 42
2.5
  3
txt
  4

  0
ENDTAB
  0
TABLE
  2
VIEW
  5
6
330
0
100
AcDbSymbolTable
 70
     0
  0
ENDTAB
  0
TABLE
  2
UCS
  5
7
330
0
100
AcDbSymbolTable
 70
     0
  0
ENDTAB
  0
TABLE
  2
APPID
  5
9
330
0
100
AcDbSymbolTable
 70
     2
  0
APPID
  5
12
330
9
100
AcDbSymbolTableRecord
100
AcDbRegAppTableRecord
  2
ACAD
 70
     0
  0
ENDTAB
  0
TABLE
  2
DIMSTYLE
  5
A
330
0
100
AcDbSymbolTable
 70
     1
  0
DIMSTYLE
105
27
330
A
100
AcDbSymbolTableRecord
100
AcDbDimStyleTableRecord
  2
ISO-25
 70
     0
  3

  4

  5

  6

  7

 40
1.0
 41
2.5
 42
0.625
 43
3.75
 44
1.25
 45
0.0
 46
0.0
 47
0.0
 48
0.0
140
2.5
141
2.5
142
0.0
143
0.03937007874016
144
1.0
145
0.0
146
1.0
147
0.625
 71
     0
 72
     0
 73
     0
 74
     0
 75
     0
 76
     0
 77
     1
 78
     8
170
     0
171
     3
172
     1
173
     0
174
     0
175
     0
176
     0
177
     0
178
     0
270
     2
271
     2
272
     2
273
     2
274
     3
340
11
275
     0
280
     0
281
     0
282
     0
283
     0
284
     8
285
     0
286
     0
287
     3
288
     0
  0
ENDTAB
  0
TABLE
  2
BLOCK_RECORD
  5
1
330
0
100
AcDbSymbolTable
 70
     1
  0
BLOCK_RECORD
  5
1F
330
1
100
AcDbSymbolTableRecord
100
AcDbBlockTableRecord
  2
*MODEL_SPACE
  0
BLOCK_RECORD
  5
1B
330
1
100
AcDbSymbolTableRecord
100
AcDbBlockTableRecord
  2
*PAPER_SPACE
  0
ENDTAB
  0
ENDSEC
  0
SECTION
  2
BLOCKS
  0
BLOCK
  5
20
330
1F
100
AcDbEntity
  8
0
100
AcDbBlockBegin
  2
*MODEL_SPACE
 70
     0
 10
0.0
 20
0.0
 30
0.0
  3
*MODEL_SPACE
  1

  0
ENDBLK
  5
21
330
1F
100
AcDbEntity
  8
0
100
AcDbBlockEnd
  0
BLOCK
  5
1C
330
1B
100
AcDbEntity
 67
     1
  8
0
100
AcDbBlockBegin
  2
*PAPER_SPACE
  1

  0
ENDBLK
  5
1D
330
1B
100
AcDbEntity
 67
     1
  8
0
100
AcDbBlockEnd
  0
ENDSEC
  0
SECTION
  2
ENTITIES
  0
SPLINE
  5
100
100
AcDbEntity
  8
Layer_1
 62
7
100
AcDbSpline
 70
8
 71
3
 72
8
 73
4
 74
0
 40
0
 40
0
 40
0
 40
0
 40
1
 40
1
 40
1
 40
1
 10
39.999999
 20
19.924812
 30
0.0
 10
39.999999
 20
8.879118
 30
0.0
 10
31.045695
 20
-0.075190
 30
0.0
 10
20.000000
 20
-0.075190
 30
0.0
  0
SPLINE
  5
101
100
AcDbEntity
  8
Layer_1
 62
7
100
AcDbSpline
 70
8
 71
3
 72
8
 73
4
 74
0
 40
0
 40
0
 40
0
 40
0
 40
1
 40
1
 40
1
 40
1
 10
20.000000
 20
-0.075190
 30
0.0
 10
8.954305
 20
-0.075190
 30
0.0
 10
0.000000
 20
8.879118
 30
0.0
 10
0.000000
 20
19.924812
 30
0.0
  0
SPLINE
  5
102
100
AcDbEntity
  8
Layer_1
 62
7
100
AcDbSpline
 70
8
 71
3
 72
8
 73
4
 74
0
 40
0
 40
0
 40
0
 40
0
 40
1
 40
1
 40
1
 40
1
 10
0.000000
 20
19.924812
 30
0.0
 10
0.000000
 20
30.970507
 30
0.0
 10
8.954305
 20
39.924812
 30
0.0
 10
20.000000
 20
39.924812
 30
0.0
  0
SPLINE
  5
103
100
AcDbEntity
  8
Layer_1
 62
7
100
AcDbSpline
 70
8
 71
3
 72
8
 73
4
 74
0
 40
0
 40
0
 40
0
 40
0
 40
1
 40
1
 40
1
 40
1
 10
20.000000
 20
39.924812
 30
0.0
 10
31.045695
 20
39.924812
 30
0.0
 10
39.999999
 20
30.970507
 30
0.0
 10
39.999999
 20
19.924812
 30
0.0
  0
LWPOLYLINE
  5
104
100
AcDbEntity
  8
Layer_1
 62
7
100
AcDbPolyline
 90
2
 70
0
 10
39.999999
 20
19.924812
 30
0.0
 10
39.999999
 20
19.924812
 30
0.0
  0
LWPOLYLINE
  5
105
100
AcDbEntity
  8
Layer
 62
7
100
AcDbPolyline
 90
90
 70
0
 10
13.610313
 20
29.916659
 30
0.0
 10
13.610313
 20
29.881382
 30
0.0
 10
5.143646
 20
29.881382
 30
0.0
 10
5.143646
 20
26.159576
 30
0.0
 10
13.610313
 20
26.159576
 30
0.0
 10
13.610313
 20
13.124437
 30
0.0
 10
13.406017
 20
12.005404
 30
0.0
 10
12.848714
 20
11.178467
 30
0.0
 10
12.021776
 20
10.621162
 30
0.0
 10
11.008576
 20
10.416867
 30
0.0
 10
9.995378
 20
10.621162
 30
0.0
 10
9.168440
 20
11.178467
 30
0.0
 10
8.611136
 20
12.005404
 30
0.0
 10
8.406840
 20
13.018604
 30
0.0
 10
8.415660
 20
13.115618
 30
0.0
 10
5.126007
 20
13.115618
 30
0.0
 10
5.277124
 20
11.907438
 30
0.0
 10
5.651749
 20
10.783562
 30
0.0
 10
6.226152
 20
9.767655
 30
0.0
 10
6.976606
 20
8.883385
 30
0.0
 10
7.879381
 20
8.154422
 30
0.0
 10
8.910747
 20
7.604430
 30
0.0
 10
10.046977
 20
7.257076
 30
0.0
 10
11.264340
 20
7.136034
 30
0.0
 10
12.482357
 20
7.257282
 30
0.0
 10
13.618443
 20
7.605206
 30
0.0
 10
14.649017
 20
8.156084
 30
0.0
 10
15.550497
 20
8.886193
 30
0.0
 10
16.299302
 20
9.771806
 30
0.0
 10
16.871851
 20
10.789200
 30
0.0
 10
17.244562
 20
11.914653
 30
0.0
 10
17.393854
 20
13.124437
 30
0.0
 10
17.411493
 20
13.124437
 30
0.0
 10
17.411493
 20
26.159576
 30
0.0
 10
21.600729
 20
26.159576
 30
0.0
 10
21.613345
 20
21.994241
 30
0.0
 10
21.636007
 20
17.842840
 30
0.0
 10
27.430382
 20
17.842840
 30
0.0
 10
27.430382
 20
17.834020
 30
0.0
 10
27.509757
 20
17.834020
 30
0.0
 10
28.177728
 20
17.766600
 30
0.0
 10
28.800036
 20
17.573256
 30
0.0
 10
29.854155
 20
16.862307
 30
0.0
 10
30.565104
 20
15.808186
 30
0.0
 10
30.758449
 20
15.185879
 30
0.0
 10
30.825869
 20
14.517909
 30
0.0
 10
30.758449
 20
13.850319
 30
0.0
 10
30.565104
 20
13.229010
 30
0.0
 10
29.854155
 20
12.177922
 30
0.0
 10
28.800036
 20
11.470005
 30
0.0
 10
28.177728
 20
11.277659
 30
0.0
 10
27.509757
 20
11.210617
 30
0.0
 10
26.560531
 20
11.348638
 30
0.0
 10
25.719676
 20
11.735951
 30
0.0
 10
25.026414
 20
12.332439
 30
0.0
 10
24.519965
 20
13.097979
 30
0.0
 10
20.295451
 20
13.097979
 30
0.0
 10
20.648763
 20
11.871712
 30
0.0
 10
21.198894
 20
10.743452
 30
0.0
 10
21.925788
 20
9.733384
 30
0.0
 10
22.809389
 20
8.861696
 30
0.0
 10
23.829642
 20
8.148577
 30
0.0
 10
24.966492
 20
7.614209
 30
0.0
 10
26.199882
 20
7.278788
 30
0.0
 10
27.509757
 20
7.162492
 30
0.0
 10
28.992483
 20
7.311878
 30
0.0
 10
30.373334
 20
7.740345
 30
0.0
 10
31.622780
 20
8.418359
 30
0.0
 10
32.711283
 20
9.316384
 30
0.0
 10
33.609308
 20
10.404887
 30
0.0
 10
34.287322
 20
11.654330
 30
0.0
 10
34.715789
 20
13.035184
 30
0.0
 10
34.865175
 20
14.517909
 30
0.0
 10
34.715789
 20
16.001013
 30
0.0
 10
34.287322
 20
17.382865
 30
0.0
 10
33.609308
 20
18.633722
 30
0.0
 10
32.711283
 20
19.723844
 30
0.0
 10
31.622780
 20
20.623488
 30
0.0
 10
30.373334
 20
21.302915
 30
0.0
 10
28.992483
 20
21.732381
 30
0.0
 10
27.509757
 20
21.882145
 30
0.0
 10
26.449898
 20
21.804963
 30
0.0
 10
25.437188
 20
21.582284
 30
0.0
 10
25.437188
 20
26.159576
 30
0.0
 10
34.873994
 20
26.159576
 30
0.0
 10
34.873994
 20
29.881382
 30
0.0
 10
17.411493
 20
29.881382
 30
0.0
 10
17.411493
 20
29.916659
 30
0.0
 10
13.610313
 20
29.916659
 30
0.0
 10
13.610313
 20
29.916659
 30
0.0
  0
ENDSEC
  0
SECTION
  2
OBJECTS
  0
DICTIONARY
  5
C
330
0
100
AcDbDictionary
  3
ACAD_GROUP
350
D
  3
ACAD_MLINESTYLE
350
17
  0
DICTIONARY
  5
D
330
C
100
AcDbDictionary
  0
DICTIONARY
  5
1A
330
C
100
AcDbDictionary
  0
DICTIONARY
  5
17
330
C
100
AcDbDictionary
  3
STANDARD
350
18
  0
DICTIONARY
  5
19
330
C
100
AcDbDictionary
  0
ENDSEC
  0
EOF
